HIERARCHY
ROOT ui
{
	 OFFSET 0 0 0
	 CHANNELS 3 XPosition YPosition Z Position
	 EndSite
	 {
	 OFFSET 0 -1 0
	 }
}
ROOT li
{
	 OFFSET 0 0 0
	 CHANNELS 3 XPosition YPosition Z Position
	 EndSite
	 {
	 OFFSET 0 -1 0
	 }
}
ROOT ul
{
	 OFFSET 0 0 0
	 CHANNELS 3 XPosition YPosition Z Position
	 EndSite
	 {
	 OFFSET 0 -1 0
	 }
}
ROOT ll
{
	 OFFSET 0 0 0
	 CHANNELS 3 XPosition YPosition Z Position
	 EndSite
	 {
	 OFFSET 0 -1 0
	 }
}
ROOT tt
{
	 OFFSET 0 0 0
	 CHANNELS 3 XPosition YPosition Z Position
	 EndSite
	 {
	 OFFSET 0 -1 0
	 }
}
ROOT tb
{
	 OFFSET 0 0 0
	 CHANNELS 3 XPosition YPosition Z Position
	 EndSite
	 {
	 OFFSET 0 -1 0
	 }
}
ROOT td
{
	 OFFSET 0 0 0
	 CHANNELS 3 XPosition YPosition Z Position
	 EndSite
	 {
	 OFFSET 0 -1 0
	 }
}
ROOT v
{
	 OFFSET 0 0 0
	 CHANNELS 3 XPosition YPosition Z Position
	 EndSite
	 {
	 OFFSET 0 -1 0
	 }
}
ROOT bn
{
	 OFFSET 0 0 0
	 CHANNELS 3 XPosition YPosition Z Position
	 EndSite
	 {
	 OFFSET 0 -1 0
	 }
}
MOTION
Frames: 13
Frame Time: 0.002
0.0016779420375823975	-1.5088999643921853E-5	0		0.48046609497070314	-2.34317431640625	0		-1.0177169799804688	-0.02529216957092285	0		-0.661571044921875	-2.258911865234375	0		1.48524560546875	-0.5245750122070313	0		3.08519921875	0.022495729446411133	0		4.64836181640625	0.18599583435058595	0		5.61669970703125	0.1269036865234375	0		-0.2256626434326172	5.90228271484375	0		
0.0019947199821472167	-8.179999887943268E-6	0		0.5056470642089844	-2.348494384765625	0		-1.0174010009765626	-0.025254253387451173	0		-0.7342546997070313	-2.2529716796875	0		1.4655479736328125	-0.5243629760742188	0		3.079604736328125	0.029483375549316407	0		4.63359814453125	0.17904965209960938	0		5.61213330078125	0.13580165100097658	0		-0.2743627014160156	5.88691064453125	0		
-0.0267138729095459	-0.002637310981750488	0		0.45399099731445314	-2.340851806640625	0		-1.0170750732421876	-0.025214988708496092	0		-0.663093017578125	-2.26083154296875	0		1.49178076171875	-0.5307283935546875	0		3.090755859375	0.015255380630493164	0		4.63884228515625	0.17184693908691406	0		5.61735107421875	0.12656795501708984	0		-0.2587118225097656	5.8977373046875	0		
0.0026528730392456055	5.113000050187111E-6	0		0.5081788635253907	-2.346538818359375	0		-1.0067704467773437	-0.02730088233947754	0		-0.7218056030273438	-2.2580615234375	0		1.451110595703125	-0.5292549438476563	0		3.0864404296875	0.043221755981445314	0		4.63835546875	0.18571359252929687	0		5.61277490234375	0.13345355224609376	0		-0.22314045715332032	5.90131201171875	0		
0.0029856929779052735	1.1188000440597534E-5	0		0.48553781127929685	-2.338259765625	0		-1.0123749389648438	-0.02218659782409668	0		-0.6476154174804688	-2.263964599609375	0		1.4895240478515626	-0.5217759399414063	0		3.086509765625	0.02212885284423828	0		4.649693359375	0.18542965698242186	0		5.6180234375	0.1262140350341797	0		-0.08933557891845703	5.922646484375	0		
0.0033178930282592774	1.7006000503897667E-5	0		0.5086920471191406	-2.3465595703125	0		-1.010144775390625	-0.030172863006591798	0		-0.7311847534179687	-2.249876953125	0		1.47273974609375	-0.5296022338867188	0		3.092019287109375	0.035971454620361325	0		4.6439306640625	0.17736296081542968	0		5.61757470703125	0.1430510711669922	0		-0.2220935821533203	5.90133837890625	0		
0.0036471281051635744	2.274000085890293E-5	0		0.5089475708007812	-2.34656982421875	0		-1.0157526245117188	-0.025059648513793945	0		-0.6620584716796875	-2.260721923828125	0		1.5270859375	-0.5273273315429687	0		3.08126171875	0.029020124435424805	0		4.65036669921875	0.18514620971679688	0		5.61869287109375	0.12586911773681642	0		-0.22256619262695312	5.90236376953125	0		
9.196959733963013E-4	-0.003932944059371948	0		0.5071727600097656	-2.348553955078125	0		-1.0154302368164063	-0.025022184371948242	0		-0.7228131713867187	-2.260920166015625	0		1.4933447265625	-0.5309363403320313	0		3.07667529296875	0.03599360656738281	0		4.64459423828125	0.1770849914550781	0		5.614109375	0.13276397705078125	0		-0.2551337432861328	5.89679638671875	0		
0.004283477783203125	3.511599823832512E-5	0		0.48450485229492185	-2.3412705078125	0		-0.999208251953125	-0.03218758392333984	0		-0.683572509765625	-2.26138818359375	0		1.4816170654296874	-0.5328225708007812	0		3.100860107421875	0.02560090446472168	0		4.6449130859375	0.176948974609375	0		5.62442578125	0.13247084045410157	0		-0.23853886413574218	5.9046064453125	0		
0.011658102989196777	0.005953126907348632	0		0.46182363891601563	-2.333984375	0		-1.0048463134765624	-0.02707307815551758	0		-0.7152506103515625	-2.253951416015625	0		1.4820654296875	-0.5198606567382813	0		3.085428955078125	0.04671732330322265	0		4.6443955078125	0.19082762145996093	0		5.624728515625	0.13230812072753906	0		-0.20497439575195311	5.91119970703125	0		
0.004860081195831299	5.2818000316619874E-5	0		0.5119130249023438	-2.343626953125	0		-1.014542724609375	-0.024905447006225587	0		-0.6590953369140625	-2.258636474609375	0		1.4882635498046874	-0.5249710693359375	0		3.082478271484375	0.028675468444824218	0		4.6475126953125	0.17766224670410155	0		5.61992138671875	0.12521549987792968	0		-0.21964744567871095	5.90140869140625	0		
-0.02088772201538086	3.981800079345703E-4	0		0.47420147705078125	-2.33514306640625	0		-1.0083579711914064	-0.02994076919555664	0		-0.742736572265625	-2.244529296875	0		1.48849853515625	-0.5250017700195313	0		3.082729248046875	0.02859900093078613	0		4.63676904296875	0.17768190002441406	0		5.6201748046875	0.12506614685058592	0		-0.2202149658203125	5.90243994140625	0		
0.005324880123138428	7.847700268030166E-5	0		0.5102081298828125	-2.346603759765625	0		-1.014079345703125	-0.02482268714904785	0		-0.7217904052734375	-2.260763671875	0		1.4746358642578126	-0.52984814453125	0		3.088854248046875	0.021452205657958984	0		4.65697412109375	0.17631227111816405	0		5.62039306640625	0.12492662811279297	0		-0.2529135284423828	5.89688427734375	0		
